<mxfile host="app.diagrams.net" modified="2024-02-06T01:47:53.742Z" agent="Mozilla/5.0 (Windows NT 10.0; Win64; x64) AppleWebKit/537.36 (KHTML, like Gecko) Chrome/121.0.0.0 Safari/537.36" etag="K0VX6JD5bH-VY0WYJtBD" version="23.0.2" type="github">
  <diagram name="Halaman-1" id="64se9kTdfbIO6P_SXvsD">
    <mxGraphModel dx="1680" dy="1294" grid="0" gridSize="10" guides="1" tooltips="1" connect="1" arrows="1" fold="1" page="0" pageScale="1" pageWidth="1169" pageHeight="827" math="0" shadow="0">
      <root>
        <mxCell id="0" />
        <mxCell id="1" parent="0" />
        <mxCell id="vC1r9cS1ptpjQUJuSfFv-11" value="Table" style="shape=table;startSize=38;container=1;collapsible=0;childLayout=tableLayout;fontSize=16;" vertex="1" parent="1">
          <mxGeometry x="-446" y="-476" width="830" height="487.75" as="geometry" />
        </mxCell>
        <mxCell id="vC1r9cS1ptpjQUJuSfFv-12" value="" style="shape=tableRow;horizontal=0;startSize=0;swimlaneHead=0;swimlaneBody=0;strokeColor=inherit;top=0;left=0;bottom=0;right=0;collapsible=0;dropTarget=0;fillColor=none;points=[[0,0.5],[1,0.5]];portConstraint=eastwest;fontSize=16;" vertex="1" parent="vC1r9cS1ptpjQUJuSfFv-11">
          <mxGeometry y="38" width="830" height="413" as="geometry" />
        </mxCell>
        <mxCell id="vC1r9cS1ptpjQUJuSfFv-13" value="" style="shape=partialRectangle;html=1;whiteSpace=wrap;connectable=0;strokeColor=inherit;overflow=hidden;fillColor=none;top=0;left=0;bottom=0;right=0;pointerEvents=1;fontSize=16;" vertex="1" parent="vC1r9cS1ptpjQUJuSfFv-12">
          <mxGeometry width="830" height="413" as="geometry">
            <mxRectangle width="830" height="413" as="alternateBounds" />
          </mxGeometry>
        </mxCell>
        <mxCell id="vC1r9cS1ptpjQUJuSfFv-14" value="" style="shape=tableRow;horizontal=0;startSize=0;swimlaneHead=0;swimlaneBody=0;strokeColor=inherit;top=0;left=0;bottom=0;right=0;collapsible=0;dropTarget=0;fillColor=none;points=[[0,0.5],[1,0.5]];portConstraint=eastwest;fontSize=16;" vertex="1" parent="vC1r9cS1ptpjQUJuSfFv-11">
          <mxGeometry y="451" width="830" height="37" as="geometry" />
        </mxCell>
        <mxCell id="vC1r9cS1ptpjQUJuSfFv-15" value="" style="shape=partialRectangle;html=1;whiteSpace=wrap;connectable=0;strokeColor=inherit;overflow=hidden;fillColor=none;top=0;left=0;bottom=0;right=0;pointerEvents=1;fontSize=16;" vertex="1" parent="vC1r9cS1ptpjQUJuSfFv-14">
          <mxGeometry width="830" height="37" as="geometry">
            <mxRectangle width="830" height="37" as="alternateBounds" />
          </mxGeometry>
        </mxCell>
        <mxCell id="vC1r9cS1ptpjQUJuSfFv-16" value="" style="verticalLabelPosition=bottom;html=1;verticalAlign=top;align=center;strokeColor=none;fillColor=#00BEF2;shape=mxgraph.azure.user;fontSize=16;" vertex="1" parent="1">
          <mxGeometry x="-402" y="-383" width="47.5" height="50" as="geometry" />
        </mxCell>
        <mxCell id="vC1r9cS1ptpjQUJuSfFv-17" value="" style="verticalLabelPosition=bottom;html=1;verticalAlign=top;align=center;strokeColor=none;fillColor=#00BEF2;shape=mxgraph.azure.user;fontSize=16;" vertex="1" parent="1">
          <mxGeometry x="-400" y="-283" width="47.5" height="50" as="geometry" />
        </mxCell>
        <mxCell id="vC1r9cS1ptpjQUJuSfFv-18" value="" style="verticalLabelPosition=bottom;html=1;verticalAlign=top;align=center;strokeColor=none;fillColor=#00BEF2;shape=mxgraph.azure.user;fontSize=16;" vertex="1" parent="1">
          <mxGeometry x="-407" y="-179" width="47.5" height="50" as="geometry" />
        </mxCell>
        <mxCell id="vC1r9cS1ptpjQUJuSfFv-23" value="" style="image;points=[];aspect=fixed;html=1;align=center;shadow=0;dashed=0;image=img/lib/allied_telesis/computer_and_terminals/Personal_Computer_with_Server.svg;fontSize=16;" vertex="1" parent="1">
          <mxGeometry x="-221" y="-176" width="62.400000000000006" height="62.400000000000006" as="geometry" />
        </mxCell>
        <mxCell id="vC1r9cS1ptpjQUJuSfFv-25" value="" style="image;html=1;image=img/lib/clip_art/computers/Database_128x128.png;fontSize=16;" vertex="1" parent="1">
          <mxGeometry x="207" y="-339" width="80" height="80" as="geometry" />
        </mxCell>
        <mxCell id="vC1r9cS1ptpjQUJuSfFv-31" value="" style="image;html=1;image=img/lib/clip_art/networking/Router_Icon_128x128.png;fontSize=16;" vertex="1" parent="1">
          <mxGeometry x="-87" y="-176" width="80" height="80" as="geometry" />
        </mxCell>
        <mxCell id="vC1r9cS1ptpjQUJuSfFv-32" value="" style="image;aspect=fixed;html=1;points=[];align=center;fontSize=12;image=img/lib/azure2/app_services/App_Service_Plans.svg;" vertex="1" parent="1">
          <mxGeometry x="-65" y="-267" width="64" height="64" as="geometry" />
        </mxCell>
      </root>
    </mxGraphModel>
  </diagram>
</mxfile>
